<svg width="67" height="24" xmlns="http://www.w3.org/2000/svg"><path fill="#C9192E" d="M66.263 14.293c-1.363 1.49-2.619 2.545-3.756 2.545a1.806 1.806 0 0 1-.877-.195c.78-.116 1.643-.792 2.175-1.297.92-.881 1.519-2.194 1.519-3.061 0-1.572-.518-2.414-.54-2.605-.024-.19.278-2.04-.827-2.04-.665 0-1.728.504-1.73 1.258-.57.483-1.317 2.5-2.353 3.684-.702.927-2.722 3.29-3.774 3.307-2.147.03 2.253-5.54 2.253-5.74 0-.503-.3-1.05-1.224-1.05-1.282 0-2.707 2.073-3.103 2.55-.987 1.191-1.73 2.222-1.864 2.222-.133 0 .373-.893.76-1.564.598-1.031 1.41-2.253 1.41-2.538 0-.468-.366-1.328-1.068-1.328-1.15 0-2.626 1.765-4.027 3.404-1.34 1.567-2.357 3.013-2.518 3.013-.16 0 .405-1.23 1.073-2.45a15.28 15.28 0 0 0 1.413-2.24.825.825 0 0 0 .094-.334c0-.656-.49-.987-1.208-.845a.494.494 0 0 0-.191.056.494.494 0 0 0-.1.053c-.383.314-.82.592-1.541 1.987-.407.79-1.261.99-1.544.724 0 0 .172-.434.14-.335.081-.248.132-.506.15-.768v-.022a.934.934 0 0 0-.042-.27.74.74 0 0 0-.134-.286.698.698 0 0 0-.239-.197.581.581 0 0 0-.29-.082h-.064a1.638 1.638 0 0 0-.511.09.515.515 0 0 0 .011-.11c0-.436 0-1.489-1.058-1.489-1.49 0-4.3 2.484-5.095 4.71-.484.698-2.263 3.139-3.354 3.139-1.38 0 .207-2.87 1.646-5.693.069-.133.133-.258.2-.382.486.075.817.143.886.143.25 0 .856-.101 1.068-.324.38-.398 1.362-1.405 1.362-1.784s-.573-.446-.823-.446c-.15 0-.525.043-.972.08.762-.966 1.266-1.432 1.266-2.108 0-.872-.331-.785-1.25-.785-.262 0-.84.724-1.629 1.803-.113.155-.34.507-.64.998a6.415 6.415 0 0 0-1.033-.107c-.352 0-1.11.326-1.811 1-.546.526-1.105 1.009-1.105 1.185 0 .403.396.312.6.312.681-.085 1.366-.132 2.051-.14l-.16.294c-1.124 1.6-4.466 6.137-6.29 6.137a1.781 1.781 0 0 1-.88-.195c.78-.116 1.643-.792 2.177-1.297.92-.881 1.52-2.194 1.52-3.061 0-1.572-.519-2.414-.544-2.605-.025-.19.28-2.038-.824-2.038-.665 0-1.728.502-1.73 1.256-.569.483-1.317 2.5-2.355 3.684a14.037 14.037 0 0 1-1.945 1.842.701.701 0 0 0-.08.053l-.2.174a3.878 3.878 0 0 0-.302.268c-.85.744-1.786 1.555-2.188 1.555-.353 0-.12-.947 1.15-2.685 1.091-1.504 2.44-3.245 2.44-3.621 0-.725-.421-1.133-1.298-1.18-.79-.044-2.992 2.751-4.5 4.634-1.178 1.466-1.553 2.258-2.188 2.21-.636-.049-.567-.703.188-1.949 1.08-1.78 2.65-2.957 2.65-3.817 0-.63-.097-1.163-1.046-1.163-1.297 0-4.423 4.142-4.425 5.707-1.503 1.837-4.833 4.828-8.166 4.828-1.445 0-2.301-1.038-2.301-2.366-.01-4.956 8.299-12.911 10.331-12.911.598 0 .769.35.769.946 0 1.304-2.339 4.19-3.3 4.19-.4 0-.482-.462-.753-.462-.272 0-.345.628-1.001 1.207-1.105.966-2.138 2.545-2.138 3.09 0 1.386.564 1.787 1.09 1.787 1.174 0 8.187-5.666 8.187-9.657 0-2.405-1.726-3.016-2.414-3.016C8.103 1.78 0 12.162 0 17.632c0 2.772 1.425 4.346 3.604 4.346 3.848 0 7.53-3.276 9.832-5.96.131.897.69 1.827 1.484 1.827 1.634 0 2.187-.966 2.474-1.386.288-.42 1.13-2.141 1.538-2.344 0 0-.794 1.799-.794 2.675 0 .876.506 1.608 1.293 1.608 1.031 0 1.795-.594 2.532-1.36.524-.482 1.118-1.122 1.813-1.851.02.707.285 3.264 3.029 3.264 2.189 0 4.046-2.347 5.063-3.935-.384 1.009-.633 1.917-.633 2.573 0 1.207 1.004 1.652 1.75 1.652 2.248 0 4.063-2.897 4.581-3.81 0 1.1.049 3.025 1.745 3.022 2.476 0 3.993-3.155 4.63-4.364.46.26 1.268.072 1.687-.387-.062.068-.181 2.231-.181 2.325-.18 1.087-.053 1.874.77 1.874 1.225 0 1.28-1.357 2.249-2.687 1.137-1.56 2.914-3.318 3.11-3.318.195 0-2.164 3.552-2.164 5.165 0 .724.626 1.084 1.222 1.084.776 0 1.464-1.874 2.55-3.228.886-1.101 1.583-1.739 1.793-1.739.129 0-1.33 1.833-1.508 3.677-.099 1.012.417 1.953 1.32 1.953 1.28 0 2.74-1.424 3.702-2.563l.203-.206c.023.708.73 2.934 3.475 2.934 1.758 0 2.969-1.319 4.124-2.81.142-.174.26-.366.352-.573.104-.483-.189-.953-.373-.784l-.009-.012Zm-40.162 1.22a4.187 4.187 0 0 0-.46-.838c-.146-.152-.502-.225-.864-.208a2.23 2.23 0 0 0-.313.039c.64-.608 1.358-1.268 1.814-1.953.495-.724.913-1.503 1.247-2.323.162.686.248 1.39.256 2.096 0 1.422-1.096 2.84-1.69 3.19l.01-.003Zm16.22-1.806a3.922 3.922 0 0 1-.884 1.299c-.441.398-.96.804-1.643.804-1.233 0-1.095-2.106.3-3.569a6.354 6.354 0 0 1 2.713-1.74c-.17.177-.306.386-.403.615a1.534 1.534 0 0 0-.16.912c.041.314.178.606.39.831-.076.291-.184.572-.322.836l.01.012ZM61 15.967a4.158 4.158 0 0 0-.46-.836c-.146-.152-.502-.224-.864-.207-.105.004-.21.017-.313.038.64-.608 1.358-1.267 1.816-1.953a12.55 12.55 0 0 0 1.25-2.327c.16.687.246 1.39.255 2.098 0 1.42-1.097 2.839-1.691 3.187"/></svg>
