<svg width="45" height="17" viewBox="0 0 45 17" fill="none" xmlns="http://www.w3.org/2000/svg">
<g clip-path="url(#clip0_28569_276899)">
<path d="M7.185 3.4474C6.51642 3.43038 5.85499 3.5876 5.26625 3.90349C4.74166 4.19654 4.29174 4.60571 3.95125 5.0994C3.5994 5.61355 3.34246 6.18603 3.1925 6.78998C2.86947 8.04737 2.86947 9.36548 3.1925 10.6229C3.34369 11.2227 3.60058 11.7911 3.95125 12.3016C4.29226 12.7945 4.74263 13.2026 5.2675 13.4944C5.85625 13.8105 6.5175 13.9673 7.18563 13.9505C7.85359 13.9674 8.5144 13.8102 9.1025 13.4944C9.62821 13.2014 10.079 12.7918 10.42 12.2973C10.7703 11.7863 11.0272 11.2178 11.1787 10.6179C11.5055 9.36136 11.507 8.04289 11.1831 6.78562C11.0313 6.18156 10.7729 5.60914 10.42 5.09505C10.0788 4.60093 9.62799 4.19154 9.1025 3.89851C8.51434 3.58294 7.85354 3.42593 7.18563 3.44305M7.18563 0.843403C8.22437 0.824737 9.25437 1.04003 10.1981 1.47309C11.0631 1.87742 11.8319 2.46002 12.4537 3.18234C13.0815 3.92146 13.5636 4.77174 13.875 5.68865C14.2075 6.65434 14.375 7.66918 14.3706 8.69025C14.3754 9.71196 14.2079 10.7272 13.875 11.6937C13.5636 12.6106 13.0814 13.4609 12.4537 14.2C11.8319 14.9221 11.063 15.5045 10.1981 15.9086C9.25418 16.3411 8.22457 16.5565 7.18563 16.539C6.14667 16.5565 5.11707 16.3411 4.17313 15.9086C3.30814 15.5046 2.53928 14.9222 1.9175 14.2C1.289 13.4614 0.80675 12.611 0.496251 11.6937C0.163751 10.7293 -0.00374939 9.71567 0.000625608 8.69647C-0.00437439 7.67478 0.163126 6.65994 0.496251 5.69425C0.806736 4.77694 1.28899 3.9265 1.9175 3.18794C2.53896 2.46533 3.30762 1.88249 4.1725 1.47807C5.11625 1.04376 6.14625 0.826603 7.18563 0.843403ZM18.9625 3.92029V16.1824H21.6694V3.92029H18.9625ZM25.9287 1.21051H21.6687V3.91905H25.9281L25.9287 1.21051ZM18.9625 1.21051H14.7037V3.91905H18.9625V1.21051ZM42.0212 1.22731L40.0781 11.5332H40.0356L37.4719 1.22731H34.8981L32.2919 11.4075H32.25L30.39 1.22856H27.3487L30.5475 16.183H33.8894L36.1319 6.00349H36.1744L38.4594 16.183H41.7381L45 1.22731H42.0212Z" fill="white"/>
</g>
<defs>
<clipPath id="clip0_28569_276899">
<rect width="45" height="16" fill="white" transform="translate(0 0.843384)"/>
</clipPath>
</defs>
</svg>
